<svg width="1000" height="1000" viewBox="0 0 1000 1000" fill="none" xmlns="http://www.w3.org/2000/svg">
<g clip-path="url(#clip0_761_2)">
<rect width="1000" height="1000" rx="100" fill="#A3FF0F"/>
<path d="M725.64 320.404C692.529 320.404 664.512 331.515 641.821 354.202L408.424 587.552C371.377 621.119 326.689 638.018 274.36 638.018C219.021 638.018 172.017 618.804 133.118 580.607C94.4498 542.41 75 495.416 75 439.625C75 383.602 94.4498 336.608 133.118 298.411C172.017 260.214 219.021 241 274.36 241C319.279 241 358.411 253.501 391.984 278.04V250.954H473.488V366.009L391.753 447.727C391.984 444.949 391.984 442.403 391.984 439.625C391.984 405.363 380.87 376.889 358.179 354.202C335.488 331.515 307.471 320.404 274.36 320.404C241.249 320.404 213.232 331.515 190.541 354.202C167.849 376.889 156.504 405.363 156.504 439.625C156.504 473.655 167.849 502.129 190.541 524.816C213.232 547.503 241.249 558.846 274.36 558.846C307.471 558.846 335.488 547.503 358.179 524.816L582.314 300.495C622.371 260.677 669.143 241 725.64 241H728.187L730.734 241.231H730.966H733.281H733.513C785.61 243.315 829.604 261.14 867.114 298.411C906.477 337.534 924.537 384.297 925 439.625C925 552.133 837.476 637.555 725.64 638.018C670.301 638.018 623.297 618.804 584.63 580.607C561.475 557.92 545.499 532.224 536.005 503.287L608.247 431.291C608.016 434.069 608.016 436.847 608.016 439.625C608.016 473.655 619.13 502.129 641.821 524.816C665.67 548.429 693.919 558.846 727.261 558.846C793.02 557.92 843.496 507.685 843.496 439.625C843.496 373.185 795.335 320.867 725.64 320.404Z" fill="#0F141A"/>
<path d="M391.984 637.555C424.169 618.804 447.555 591.95 473.488 565.791V779H391.984V637.555Z" fill="#0F141A"/>
</g>
<defs>
<clipPath id="clip0_761_2">
<rect width="1000" height="1000" fill="white"/>
</clipPath>
</defs>
</svg>
