<svg width="1500" height="459" viewBox="0 0 1500 459" fill="none" xmlns="http://www.w3.org/2000/svg">
<path d="M154.514 360.264H218.138L105.585 234.422L214.199 113.576H149.061L53.3226 223.064V14.8406H0V360.264H53.3226V246.385L154.514 360.264ZM1314.73 181.116C1329.58 166.276 1347.91 159.007 1369.57 159.007C1415.17 159.31 1446.68 193.534 1446.68 236.996C1446.68 281.518 1413.65 314.379 1370.63 314.985C1348.82 314.985 1330.34 308.171 1314.73 292.724C1299.89 277.884 1292.62 259.257 1292.62 236.996C1292.62 235.179 1292.62 233.362 1292.77 231.544L1245.51 278.641C1251.72 297.57 1262.17 314.379 1277.32 329.22C1302.62 354.207 1333.37 366.776 1369.57 366.776C1442.74 366.473 1500 310.594 1500 236.996C1499.7 200.803 1487.88 170.213 1462.13 144.621C1437.59 120.24 1408.81 108.579 1374.72 107.216H1374.57H1373.06H1372.9L1371.24 107.065H1369.57C1332.61 107.065 1302.01 119.937 1275.8 145.984L1129.17 292.724C1114.32 307.565 1095.99 314.985 1074.33 314.985C1052.67 314.985 1034.34 307.565 1019.49 292.724C1004.65 277.884 997.223 259.257 997.223 236.996C997.223 214.584 1004.65 195.957 1019.49 181.116C1034.34 166.276 1052.67 159.007 1074.33 159.007C1095.99 159.007 1114.32 166.276 1129.17 181.116C1144.01 195.957 1151.28 214.584 1151.28 236.996C1151.28 238.813 1151.28 240.479 1151.13 242.296L1204.61 188.84V113.576H1151.28V131.294C1129.32 115.242 1103.72 107.065 1074.33 107.065C1038.12 107.065 1007.37 119.634 981.923 144.621C956.625 169.607 943.9 200.349 943.9 236.996C943.9 273.492 956.625 304.233 981.923 329.22C1007.37 354.207 1038.12 366.776 1074.33 366.776C1108.56 366.776 1137.8 355.721 1162.04 333.763L1314.73 181.116ZM1204.61 319.528C1187.64 336.64 1172.34 354.207 1151.28 366.473V459H1204.61V319.528ZM254.191 360.264V0H307.514V360.264H254.191ZM430.974 292.724C445.819 307.565 464.149 314.985 485.811 314.985C507.473 314.985 525.803 307.565 540.648 292.724C555.494 277.884 562.765 259.257 562.765 236.996C562.765 214.584 555.494 195.957 540.648 181.116C525.803 166.276 507.473 159.007 485.811 159.007C464.149 159.007 445.819 166.276 430.974 181.116C416.128 195.957 408.705 214.584 408.705 236.996C408.705 259.257 416.128 277.884 430.974 292.724ZM562.765 113.576H616.239V236.996V360.264H562.765V342.546C540.8 358.75 515.199 366.776 485.811 366.776C449.606 366.776 418.855 354.207 393.557 329.22C368.107 304.233 355.534 273.492 355.534 236.996C355.534 200.349 368.107 169.607 393.557 144.621C418.855 119.634 449.606 107.065 485.811 107.065C515.199 107.065 540.8 115.242 562.765 131.294V113.576ZM841.8 360.264V113.576H895.122V360.264H841.8ZM726.217 155.07C739.699 124.328 765.148 109.033 802.262 109.033V166.882C781.812 165.519 764.088 170.365 748.94 181.419C733.791 192.474 726.217 210.646 726.217 235.936V360.264H672.894V113.576H726.217V155.07Z" fill="#A3FF0F"/>
</svg>
